<?xml version="1.0" encoding="UTF-8" standalone="no"?>
<svg xmlns:ffdec="https://www.free-decompiler.com/flash" xmlns:xlink="http://www.w3.org/1999/xlink" ffdec:objectType="shape" height="31.85px" width="187.9px" xmlns="http://www.w3.org/2000/svg">
  <g transform="matrix(1.0, 0.0, 0.0, 1.0, 0.5, 0.5)">
    <path d="M0.5 5.1 Q1.05 3.2 3.55 1.6 6.1 0.0 10.1 0.0 14.0 0.0 16.6 1.35 19.2 2.75 20.0 4.7 20.75 6.6 20.75 10.25 L20.75 11.5 11.8 11.5 11.8 8.85 11.55 5.65 Q11.3 5.0 10.35 5.0 9.5 5.0 9.25 5.55 8.95 6.1 8.95 8.35 L8.95 22.6 Q8.95 24.6 9.25 25.25 9.5 25.85 10.4 25.85 11.4 25.85 11.75 25.15 12.1 24.45 12.1 22.35 L12.1 18.85 10.3 18.85 10.3 14.35 20.75 14.35 20.75 30.25 15.15 30.25 14.35 28.15 Q13.4 29.5 12.0 30.2 10.6 30.85 8.7 30.85 6.45 30.85 4.5 29.95 2.55 29.0 1.5 27.6 0.5 26.2 0.25 24.7 0.0 23.15 0.0 20.1 L0.0 11.3 Q0.0 7.05 0.5 5.1 M40.3 0.6 L59.85 0.6 59.85 6.55 54.55 6.55 54.55 30.25 45.6 30.25 45.6 6.55 40.3 6.55 40.3 0.6 M33.15 12.15 L38.7 12.15 38.7 17.8 33.15 17.8 33.15 24.3 39.7 24.3 39.7 30.25 24.2 30.25 24.2 0.6 39.1 0.6 39.1 6.55 33.15 6.55 33.15 12.15 M81.3 7.95 Q81.3 6.55 80.75 6.1 80.15 5.7 78.6 5.7 L78.6 12.25 80.7 11.9 Q81.3 11.55 81.3 9.6 L81.3 7.95 M78.6 16.9 L78.6 30.25 69.65 30.25 69.65 0.6 75.95 0.6 84.55 1.05 Q86.8 1.45 88.2 3.2 89.6 4.9 89.6 8.7 89.6 12.15 88.6 13.35 87.6 14.55 84.7 14.8 87.35 15.35 88.25 16.3 L89.4 18.05 Q89.6 18.85 89.6 22.45 L89.6 30.25 81.3 30.25 81.3 20.4 Q81.3 18.0 80.9 17.45 80.45 16.9 78.6 16.9 M102.05 6.55 L102.05 12.15 107.6 12.15 107.6 17.8 102.05 17.8 102.05 24.3 108.6 24.3 108.6 30.25 93.1 30.25 93.1 0.6 108.0 0.6 108.0 6.55 102.05 6.55 M121.95 19.65 Q121.3 14.65 120.6 7.2 119.25 15.75 118.9 19.65 L121.95 19.65 M139.95 0.6 L148.7 1.1 Q151.0 1.65 152.15 2.8 153.35 3.95 153.65 5.4 153.95 6.85 153.95 11.05 L153.95 21.45 Q153.95 25.45 153.55 26.8 153.1 28.15 152.0 28.9 150.9 29.65 149.35 29.95 L144.5 30.25 133.25 30.25 133.25 0.6 139.95 0.6 M126.7 0.6 L131.85 30.25 122.65 30.25 122.2 24.9 119.0 24.9 118.45 30.25 109.2 30.25 113.75 0.6 126.7 0.6 M155.15 0.6 L163.35 0.6 Q165.3 9.3 165.55 12.3 166.3 7.55 168.05 0.6 L176.25 0.6 169.75 19.5 169.75 30.25 161.45 30.25 161.45 19.5 155.15 0.6 M144.85 6.8 Q144.7 6.2 144.2 5.95 L142.2 5.7 142.2 25.2 Q144.1 25.2 144.55 24.5 145.0 23.85 145.0 20.9 L145.0 9.35 144.85 6.8 M177.5 0.6 L186.9 0.6 185.5 22.95 178.9 22.95 177.5 0.6 M186.2 30.25 L178.2 30.25 178.2 24.3 186.2 24.3 186.2 30.25" fill="#000000" fill-rule="evenodd" stroke="none"/>
    <path d="M0.5 5.1 Q1.05 3.2 3.55 1.6 6.1 0.0 10.1 0.0 14.0 0.0 16.6 1.35 19.2 2.75 20.0 4.7 20.75 6.6 20.75 10.25 L20.75 11.5 11.8 11.5 11.8 8.85 11.55 5.65 Q11.3 5.0 10.35 5.0 9.5 5.0 9.25 5.55 8.95 6.1 8.95 8.35 L8.95 22.6 Q8.95 24.6 9.25 25.25 9.5 25.85 10.4 25.85 11.4 25.85 11.75 25.15 12.1 24.45 12.1 22.35 L12.1 18.85 10.3 18.85 10.3 14.35 20.75 14.35 20.75 30.25 15.15 30.25 14.35 28.15 Q13.4 29.5 12.0 30.2 10.6 30.85 8.7 30.85 6.45 30.85 4.5 29.95 2.55 29.0 1.5 27.6 0.5 26.2 0.25 24.7 0.0 23.15 0.0 20.1 L0.0 11.3 Q0.0 7.05 0.5 5.1 M40.3 0.6 L59.85 0.6 59.85 6.55 54.55 6.55 54.55 30.25 45.6 30.25 45.6 6.55 40.3 6.55 40.3 0.6 M33.15 12.15 L38.7 12.15 38.7 17.8 33.15 17.8 33.15 24.3 39.7 24.3 39.7 30.25 24.2 30.25 24.2 0.6 39.1 0.6 39.1 6.55 33.15 6.55 33.15 12.15 M81.3 7.95 Q81.3 6.55 80.75 6.1 80.15 5.7 78.6 5.7 L78.6 12.25 80.7 11.9 Q81.3 11.55 81.3 9.6 L81.3 7.95 M78.6 16.9 L78.6 30.25 69.65 30.25 69.65 0.6 75.95 0.6 84.55 1.05 Q86.8 1.45 88.2 3.2 89.6 4.9 89.6 8.7 89.6 12.15 88.6 13.35 87.6 14.55 84.7 14.8 87.35 15.35 88.25 16.3 L89.4 18.05 Q89.6 18.85 89.6 22.45 L89.6 30.25 81.3 30.25 81.3 20.4 Q81.3 18.0 80.9 17.45 80.45 16.9 78.6 16.9 M102.05 6.55 L102.05 12.15 107.6 12.15 107.6 17.8 102.05 17.8 102.05 24.3 108.6 24.3 108.6 30.25 93.1 30.25 93.1 0.6 108.0 0.6 108.0 6.55 102.05 6.55 M121.95 19.65 Q121.3 14.65 120.6 7.2 119.25 15.75 118.9 19.65 L121.95 19.65 M139.95 0.6 L148.7 1.1 Q151.0 1.65 152.15 2.8 153.35 3.95 153.65 5.4 153.95 6.85 153.95 11.05 L153.95 21.45 Q153.95 25.45 153.55 26.8 153.1 28.15 152.0 28.9 150.9 29.65 149.35 29.95 L144.5 30.25 133.25 30.25 133.25 0.6 139.95 0.6 M126.7 0.6 L131.85 30.25 122.65 30.25 122.2 24.9 119.0 24.9 118.45 30.25 109.2 30.25 113.75 0.6 126.7 0.6 M155.15 0.6 L163.35 0.6 Q165.3 9.3 165.55 12.3 166.3 7.55 168.05 0.6 L176.25 0.6 169.75 19.5 169.75 30.25 161.45 30.25 161.45 19.5 155.15 0.6 M144.85 6.8 Q144.7 6.2 144.2 5.95 L142.2 5.7 142.2 25.2 Q144.1 25.2 144.55 24.5 145.0 23.85 145.0 20.9 L145.0 9.35 144.85 6.8 M177.5 0.6 L186.9 0.6 185.5 22.95 178.9 22.95 177.5 0.6 M186.2 30.25 L178.2 30.25 178.2 24.3 186.2 24.3 186.2 30.25 Z" fill="none" stroke="#ffffff" stroke-linecap="round" stroke-linejoin="round" stroke-width="1.0"/>
  </g>
</svg>
