<?xml version="1.0" encoding="UTF-8" standalone="no"?>
<svg xmlns:ffdec="https://www.free-decompiler.com/flash" xmlns:xlink="http://www.w3.org/1999/xlink" ffdec:objectType="shape" height="219.05px" width="25.15px" xmlns="http://www.w3.org/2000/svg">
  <g transform="matrix(1.0, 0.0, 0.0, 1.0, 19.1, 206.2)">
    <path d="M-4.0 -194.0 L-4.0 1.0 -12.0 1.0 -12.0 -194.0 -4.0 -194.0" fill="url(#gradient0)" fill-rule="evenodd" stroke="none"/>
    <path d="M4.55 -205.05 L4.5 -203.75 5.85 -203.7 5.8 -202.5 4.4 -202.5 4.35 -200.15 5.15 -200.15 5.1 -200.75 6.05 -200.75 6.05 -200.5 6.05 -200.2 Q6.05 -199.6 5.65 -199.3 5.25 -198.95 4.45 -198.95 L3.6 -199.1 Q3.2 -199.25 2.95 -199.5 L2.8 -199.8 2.75 -200.2 2.75 -200.4 2.8 -201.35 2.95 -202.55 2.2 -202.6 2.25 -203.55 3.05 -203.55 3.7 -205.0 4.55 -205.05 M0.1 -205.1 L0.1 -203.5 1.85 -203.5 1.9 -202.25 0.55 -202.25 0.5 -199.0 -1.4 -199.15 -1.3 -200.35 -1.3 -202.0 -1.3 -202.5 -1.9 -202.5 -2.0 -203.5 -1.3 -203.55 -1.25 -203.9 -1.05 -205.2 -0.25 -205.95 0.9 -206.2 Q1.65 -206.2 2.0 -205.8 2.35 -205.45 2.35 -204.65 L2.35 -204.2 2.35 -204.15 0.9 -204.2 0.9 -205.15 0.1 -205.1 M-10.8 -204.5 L-11.5 -204.5 -11.55 -204.5 -12.1 -204.5 -12.1 -203.8 -12.1 -202.9 -12.1 -201.75 -12.05 -200.7 -10.7 -200.7 -10.5 -204.5 -10.8 -204.5 M-12.85 -205.75 Q-12.25 -206.15 -11.3 -206.15 -9.9 -206.15 -9.25 -205.3 -8.65 -204.5 -8.65 -202.65 -8.65 -200.85 -9.3 -199.9 -10.0 -198.95 -11.25 -198.95 -12.65 -198.95 -13.35 -199.8 -14.05 -200.65 -14.05 -202.35 L-14.0 -203.45 -13.8 -204.45 -12.85 -205.75 M-16.5 -204.3 L-16.55 -202.35 -16.5 -199.15 -18.5 -199.25 -18.1 -204.5 -19.1 -204.55 -19.0 -205.6 -17.4 -205.75 -16.3 -205.95 -16.5 -204.3 M-4.65 -204.5 L-5.35 -204.5 -5.4 -204.5 -5.95 -204.5 -5.95 -203.8 -5.95 -202.9 -5.95 -201.75 -5.9 -200.7 -4.55 -200.7 -4.35 -204.5 -4.65 -204.5 M-6.7 -205.75 L-5.15 -206.15 Q-3.75 -206.15 -3.1 -205.3 -2.5 -204.5 -2.5 -202.65 -2.5 -200.85 -3.15 -199.9 -3.85 -198.95 -5.1 -198.95 -6.5 -198.95 -7.2 -199.8 -7.9 -200.65 -7.9 -202.35 L-7.85 -203.45 -7.65 -204.45 Q-7.3 -205.3 -6.7 -205.75 M-6.1 6.35 Q-5.4 6.35 -5.1 6.7 -4.8 7.05 -4.8 7.75 L-4.8 8.15 -4.8 8.2 -6.05 8.15 -6.1 7.3 -6.8 7.35 -6.8 8.75 -5.25 8.75 -5.2 9.85 -6.4 9.85 -6.45 12.75 -8.15 12.65 -8.05 11.55 -8.05 10.1 -8.05 9.65 -8.6 9.65 -8.65 8.75 -8.0 8.75 -8.0 8.4 -7.85 7.25 -7.1 6.6 -6.1 6.35 M-9.15 9.15 Q-9.15 10.95 -9.8 11.9 -10.5 12.85 -11.75 12.85 -13.15 12.85 -13.85 12.0 -14.55 11.15 -14.55 9.45 L-14.5 8.35 -14.3 7.35 Q-13.95 6.5 -13.35 6.05 -12.75 5.65 -11.8 5.65 -10.4 5.65 -9.75 6.5 -9.15 7.3 -9.15 9.15 M-2.85 8.55 L-1.65 8.6 -1.75 9.65 -2.95 9.7 -3.0 11.75 -2.3 11.75 -2.3 11.25 -1.5 11.25 -1.5 11.45 -1.45 11.7 Q-1.45 12.25 -1.85 12.5 -2.2 12.8 -2.9 12.8 L-3.7 12.7 -4.25 12.3 -4.4 12.1 -4.45 11.7 -4.45 11.55 -4.4 10.7 -4.25 9.6 -4.9 9.55 -4.85 8.7 -4.15 8.7 -3.6 7.45 -2.85 7.4 -2.85 8.55 M-12.6 8.9 L-12.6 10.05 -12.55 11.1 -11.2 11.1 -11.0 7.3 -11.3 7.3 -12.0 7.3 -12.05 7.3 -12.6 7.3 -12.6 8.0 -12.6 8.9" fill="#ffffff" fill-rule="evenodd" stroke="none"/>
    <path d="M-4.0 -194.0 L-4.0 1.0 -12.0 1.0 -12.0 -194.0 -4.0 -194.0 Z" fill="none" stroke="#534111" stroke-linecap="round" stroke-linejoin="round" stroke-width="1.5"/>
  </g>
  <defs>
    <linearGradient gradientTransform="matrix(0.0, 0.119, -0.119, 0.0, -8.0, -96.5)" gradientUnits="userSpaceOnUse" id="gradient0" spreadMethod="pad" x1="-819.2" x2="819.2">
      <stop offset="0.0" stop-color="#3557bc"/>
      <stop offset="1.0" stop-color="#6385d1"/>
    </linearGradient>
  </defs>
</svg>
